HIERARCHY
ROOT Hips
{
	OFFSET -3.958830 18.904000 13.208200
	CHANNELS 6 Xposition Yposition Zposition Zrotation Yrotation Xrotation 
	JOINT LHipJoint
	{
		OFFSET 0.000000 0.000000 0.000000
		CHANNELS 3 Zrotation Yrotation Xrotation
		JOINT LeftUpLeg
		{
			OFFSET 1.800000 -1.400000 0.085000
			CHANNELS 3 Zrotation Yrotation Xrotation
			JOINT LeftLeg
			{
				OFFSET 2.215000 -6.000000 0.000000
				CHANNELS 3 Zrotation Yrotation Xrotation
				JOINT LeftFoot
				{
					OFFSET 2.500000 -6.900000 0.000000
					CHANNELS 3 Zrotation Yrotation Xrotation
					JOINT LeftToeBase
					{
						OFFSET 0.200000 -0.500000 1.950000
						CHANNELS 3 Zrotation Yrotation Xrotation
						End Site
						{
							OFFSET 0.000000 0.000000 0.000000
						}
					}
				}
			}
		}
	}
	JOINT RHipJoint
	{
		OFFSET 0.000000 0.000000 0.000000
		CHANNELS 3 Zrotation Yrotation Xrotation
		JOINT RightUpLeg
		{
			OFFSET -1.800000 -1.400000 0.085000
			CHANNELS 3 Zrotation Yrotation Xrotation
			JOINT RightLeg
			{
				OFFSET -2.215000 -6.000000 0.000000
				CHANNELS 3 Zrotation Yrotation Xrotation
				JOINT RightFoot
				{
					OFFSET -2.500000 -6.900000 0.000000
					CHANNELS 3 Zrotation Yrotation Xrotation
					JOINT RightToeBase
					{
						OFFSET -0.200000 -0.500000 1.950000
						CHANNELS 3 Zrotation Yrotation Xrotation
						End Site
						{
							OFFSET 0.000000 0.000000 0.000000
						}
					}
				}
			}
		}
	}
	JOINT LowerBack
	{
		OFFSET 0.000000 0.000000 0.000000
		CHANNELS 3 Zrotation Yrotation Xrotation
		JOINT Spine
		{
			OFFSET -0.087000 1.940000 -0.288900
			CHANNELS 3 Zrotation Yrotation Xrotation
			JOINT Spine1
			{
				OFFSET 0.000000 1.950000 0.060000
				CHANNELS 3 Zrotation Yrotation Xrotation
				JOINT Neck
				{
					OFFSET 0.000000 0.000000 0.000000
					CHANNELS 3 Zrotation Yrotation Xrotation
					JOINT Neck1
					{
						OFFSET 0.000000 1.600000 0.340000
						CHANNELS 3 Zrotation Yrotation Xrotation
						JOINT Head
						{
							OFFSET 0.000000 1.667000 -0.240000
							CHANNELS 3 Zrotation Yrotation Xrotation
							End Site
							{
								OFFSET 0.000000 0.000000 0.000000
							}
						}
					}
				}
				JOINT LeftShoulder
				{
					OFFSET 0.000000 0.000000 0.000000
					CHANNELS 3 Zrotation Yrotation Xrotation
					JOINT LeftArm
					{
						OFFSET 2.700000 1.550000 -0.730000
						CHANNELS 3 Zrotation Yrotation Xrotation
						JOINT LeftForeArm
						{
							OFFSET 5.450000 0.000000 0.000000
							CHANNELS 3 Zrotation Yrotation Xrotation
							JOINT LeftHand
							{
								OFFSET 3.450000 0.000000 0.000000
								CHANNELS 3 Zrotation Yrotation Xrotation
								JOINT LeftHandIndex1
								{
									OFFSET 0.750000 0.000000 0.000000
									CHANNELS 3 Zrotation Yrotation Xrotation
									End Site
									{
										OFFSET 0.000000 0.000000 0.000000
									}
								}
							}
						}
					}
				}
				JOINT RightShoulder
				{
					OFFSET 0.000000 0.000000 0.000000
					CHANNELS 3 Zrotation Yrotation Xrotation
					JOINT RightArm
					{
						OFFSET -2.700000 1.550000 -0.730000
						CHANNELS 3 Zrotation Yrotation Xrotation
						JOINT RightForeArm
						{
							OFFSET -5.450000 0.000000 0.000000
							CHANNELS 3 Zrotation Yrotation Xrotation
							JOINT RightHand
							{
								OFFSET -3.450000 0.000000 0.000000
								CHANNELS 3 Zrotation Yrotation Xrotation
								JOINT RightHandIndex1
								{
									OFFSET -0.750000 0.000000 0.000000
									CHANNELS 3 Zrotation Yrotation Xrotation
									End Site
									{
										OFFSET 0.000000 0.000000 0.000000
									}
								}
							}
						}
					}
				}
			}
		}
	}
}
MOTION
Frames: 13
Frame Time: 0.016667
3.343660 16.654110 -6.000670 -0.326982 34.927778 -22.889921 -14.629556 12.089932 0.727807 18.354574 2.527898 -15.161975 22.121562 0.765590 48.953575 0.792952 8.234928 1.579929 0.150620 0.024490 0.157400 18.984801 -13.312359 2.452522 -47.079878 0.276777 -1.997071 6.576569 -18.312856 44.688965 -1.127728 -9.474073 0.896987 -0.007650 -0.080430 0.071860 -7.572836 5.328975 -7.798077 33.606191 8.417644 4.302925 15.993792 -2.631062 18.895053 -5.933546 3.657912 -22.426855 12.572174 -16.638442 50.205146 -4.607830 -12.149690 2.393600 10.251374 -23.798302 11.621020 1.119881 2.880962 -1.384262 -8.590802 -9.634790 0.049613 -3.602094 2.186348 0.134610 -0.056530 0.057650 0.010480 1.928628 22.728682 12.487168 54.565573 46.841306 8.808647 169.303505 83.900100 156.117032 1.975688 -1.311694 0.045680 0.008740 -0.031730 -0.030360 
3.390530 16.703750 -5.939650 0.107728 35.651091 -22.929841 -14.631022 12.238500 0.604635 17.360921 2.374367 -12.551811 22.591168 0.077888 46.216664 0.711460 7.770506 1.732091 0.180480 0.063350 0.169200 18.943052 -13.528504 2.309707 -46.387561 -0.055978 -0.493957 4.215482 -16.796448 43.731566 -1.096329 -9.228398 0.975074 0.008970 -0.111660 0.077750 -7.666999 5.402928 -7.623985 34.043518 8.450618 3.264285 15.195440 -3.059520 19.538345 -5.732749 3.317943 -22.319497 11.633649 -16.727088 51.553635 -4.538120 -12.619730 1.542510 10.143325 -23.855672 11.611238 1.758721 2.129996 -1.052071 -7.900795 -9.573948 0.110887 -3.599013 2.229811 0.145280 -0.078740 0.078330 0.006510 1.924007 22.687576 12.687822 56.290151 46.964429 7.308495 141.322662 81.474935 127.537430 2.121823 -0.179583 0.066740 -0.003530 -0.038320 -0.029790 
3.459480 16.743410 -5.865750 1.519365 35.722434 -21.978385 -14.608100 12.244200 0.489446 16.079823 2.306193 -9.941924 22.328561 -0.109290 44.307654 0.662040 7.415524 1.860734 0.199600 0.090780 0.181130 18.961335 -13.679132 2.276436 -47.011654 -0.430250 0.280276 2.577954 -15.775575 42.340940 -1.070326 -9.035669 1.035691 0.017650 -0.131990 0.079330 -7.746412 5.554417 -7.467216 33.383718 8.902629 1.772729 14.639663 -3.075885 20.225465 -5.770926 3.205995 -22.376775 11.765994 -17.093604 53.230070 -4.461780 -12.747370 1.450900 10.462085 -23.843542 11.483994 2.574458 1.308821 -0.812103 -8.048109 -9.513537 0.146316 -3.597252 2.217638 0.152560 -0.093170 0.097800 0.006170 1.911488 22.636769 13.309651 61.178443 47.278602 10.530920 141.443134 79.465703 124.837163 2.243007 -0.316591 0.081320 -0.007510 -0.047020 -0.027890 
3.511160 16.775820 -5.808850 2.581003 36.096128 -21.460678 -14.608678 12.220844 0.388566 15.348387 2.304585 -7.534850 21.793874 -0.092966 42.221878 0.555852 7.096689 1.977849 0.228500 0.119040 0.207970 18.977195 -13.729171 2.248319 -47.718105 -0.834605 1.527297 1.811518 -15.245048 40.740680 -1.065960 -8.947994 1.062569 0.052930 -0.132690 0.089650 -7.815225 5.617868 -7.319754 32.193238 8.330623 0.813595 14.312735 -4.306150 21.246229 -5.827570 3.186983 -22.391968 12.571388 -16.967491 54.176839 -5.117460 -11.761490 0.921710 11.640570 -22.350941 10.805256 1.933341 1.664793 -0.970996 -7.983156 -10.470106 0.255581 -3.589699 2.227921 0.167910 -0.082720 0.103300 0.005050 1.144150 21.218558 14.148926 67.943465 50.523192 14.026798 127.340958 79.719083 111.429931 2.455356 0.658018 0.068580 0.005660 -0.045880 -0.045210 
3.508780 16.792860 -5.797590 3.077269 35.363912 -20.991800 -14.582806 12.298354 0.370496 15.860532 2.414807 -6.413058 20.595408 0.504271 41.084571 0.497537 6.939685 2.039215 0.209470 0.097290 0.175100 18.997127 -13.710208 2.217561 -47.501717 -1.058553 0.751741 1.018138 -14.781055 40.858778 -1.024084 -8.873908 1.085358 0.053590 -0.094700 0.090700 -7.751271 5.407255 -7.238290 33.223328 7.641741 1.105144 13.450325 -5.098356 21.672589 -5.651945 2.446799 -21.749784 10.406837 -15.433880 55.430797 -4.797030 -11.694690 1.119340 10.176504 -21.505735 10.869310 2.550021 2.470383 -0.670124 -7.870183 -9.688697 0.114025 -3.661063 2.234191 0.157010 -0.062090 0.073670 0.005110 2.399181 20.567821 13.467366 70.441004 52.756079 18.727542 109.932507 78.850995 87.223758 3.630820 3.811764 0.053310 0.017300 -0.020270 -0.037840 
3.487150 16.799870 -5.771270 3.222798 35.330938 -20.354440 -14.619432 12.320309 0.319802 16.540801 2.640835 -6.170338 20.027692 0.860730 39.764838 0.447114 6.755606 2.109311 0.189530 0.074580 0.170200 18.967743 -13.659197 2.218352 -47.218522 -0.938248 0.767200 1.829170 -15.081183 40.796765 -1.017200 -8.896911 1.082047 0.048160 -0.077620 0.073540 -7.562248 5.316835 -7.073856 33.344788 7.630870 0.694373 13.134838 -4.889454 20.910197 -5.611460 2.559567 -20.419114 10.946417 -15.114992 56.138033 -4.434890 -11.043410 1.879410 9.616889 -22.126989 11.494444 3.046802 2.164317 -0.392848 -7.383215 -8.821738 0.025760 -3.712667 2.203892 0.157090 -0.053200 0.060100 0.000910 2.794307 21.191339 10.238133 69.725384 48.190091 28.984187 -91.688981 89.184573 -111.705434 5.514426 6.040609 0.031190 0.033960 -0.012320 -0.044300 
3.456570 16.784360 -5.735190 2.774933 34.694235 -19.549349 -14.545550 12.314710 0.350626 18.373498 2.884722 -6.786511 18.305550 1.896858 39.297077 0.436174 6.654499 2.143917 0.181720 0.064210 0.192060 19.014417 -13.714481 2.257942 -46.213331 -0.921827 -0.317619 2.315114 -15.249221 41.356604 -1.010227 -8.883255 1.086699 0.034020 -0.093670 0.063430 -7.685014 5.397674 -7.222888 34.310320 8.118172 0.698532 12.832058 -4.219786 20.787122 -5.184852 2.852969 -21.503349 11.500584 -15.361262 56.642868 -5.792390 -10.159900 3.570360 9.820123 -22.327254 11.416612 3.912683 1.584945 -0.317655 -6.631450 -8.702970 0.093410 -3.709926 2.200822 0.144880 -0.049710 0.067540 0.007510 1.707999 20.974422 12.416981 65.853889 48.605770 14.650756 112.874031 77.185224 86.154542 3.521717 2.692963 0.031400 0.023190 -0.039820 -0.050240 
3.422670 16.792440 -5.703910 3.320542 34.174874 -18.857931 -14.528848 12.365950 0.338464 18.176050 2.995213 -5.857447 18.112232 1.917551 37.948374 0.388150 6.463925 2.207127 0.185890 0.054990 0.217240 19.025958 -13.674934 2.287661 -46.171936 -0.893628 -0.786645 2.733533 -15.476040 41.692911 -1.026378 -8.892492 1.072671 0.025500 -0.117700 0.062110 -7.627225 5.212827 -7.183094 34.728088 7.911632 0.910114 12.270370 -4.543560 21.387941 -5.040700 2.219317 -21.623709 10.107640 -14.327117 59.146173 -6.162140 -9.269180 3.559430 9.346623 -22.551083 11.921447 4.168933 2.439792 -0.200183 -5.840815 -8.331135 0.058007 -3.701649 2.189117 0.183150 -0.069580 0.090260 -0.004230 2.043170 21.387463 12.499122 67.325547 47.871793 14.733837 111.469079 77.410755 84.056303 3.700865 2.937767 0.023880 0.025000 -0.038370 -0.069770 
3.368750 16.782750 -5.681480 3.517447 33.318203 -18.006228 -14.518982 12.356214 0.337460 19.027593 3.148375 -6.351221 16.739787 2.670570 37.742683 0.341057 6.463955 2.187893 0.169430 0.028780 0.210530 19.058896 -13.505304 2.378438 -46.559908 -0.871834 -1.884493 4.391644 -16.364628 41.892764 -1.022763 -9.001542 1.024810 0.019200 -0.096770 0.071660 -7.517173 4.947431 -7.164522 35.098554 7.374136 1.470399 11.884570 -4.854956 21.213646 -4.846686 1.837306 -20.705586 8.981998 -12.554881 60.118276 -5.942010 -7.939700 3.750310 9.374066 -21.592414 11.698896 3.775561 2.538272 -0.121376 -5.373635 -8.827651 0.140812 -3.717176 2.262726 0.185120 -0.047540 0.070770 -0.022660 1.798973 20.614978 11.418925 67.123520 46.646246 15.723496 109.814216 77.495927 80.494214 3.884986 2.913272 0.010990 0.022480 -0.009580 -0.082940 
3.323940 16.794250 -5.660560 4.087028 32.983352 -17.664125 -14.538838 12.538939 0.399243 18.235114 3.000813 -5.993818 17.436849 2.196643 36.868877 0.305461 6.364193 2.227612 0.145320 -0.009630 0.199080 19.009171 -13.482530 2.289311 -45.682061 -0.762637 -2.698035 2.968456 -15.769832 43.411517 -1.000836 -8.977002 1.027578 0.006580 -0.078000 0.075140 -7.361544 4.541999 -7.045276 35.622616 6.581339 2.245640 10.803531 -5.257357 21.114130 -4.262641 1.107668 -19.702001 6.499961 -10.782220 62.200591 -6.163360 -7.345530 4.533670 8.753049 -21.473903 11.739370 4.218349 1.929524 0.251952 -5.303798 -9.245025 0.277452 -3.704231 2.362110 0.189650 -0.033310 0.053950 -0.035730 1.516559 20.815264 10.140421 62.480739 44.205810 13.916801 109.515075 76.704497 77.636725 3.856066 2.276660 -0.006140 0.024220 0.015690 -0.090550 
3.257760 16.776960 -5.642740 4.421459 32.495887 -16.943192 -14.566504 12.553656 0.409151 18.444010 2.810125 -7.115521 16.938991 2.373276 36.697393 0.255654 6.358275 2.237373 0.114340 -0.055860 0.166400 19.016872 -13.269191 2.352141 -46.366959 -0.966552 -3.993702 3.967466 -16.625652 44.397669 -1.006708 -9.154442 0.971380 0.003870 -0.018450 0.066750 -7.190881 4.129295 -6.997878 35.702545 5.657401 3.107211 9.713064 -5.665332 20.986761 -4.206507 0.659044 -18.390969 4.797417 -8.998960 63.401980 -5.294830 -6.845480 5.551340 9.102709 -20.343600 11.101435 3.689867 0.623652 0.550413 -5.082511 -11.292950 0.657101 -3.671929 2.505112 0.185790 -0.002240 0.012060 -0.028560 1.094839 19.780321 8.955902 62.139210 42.965085 16.262213 102.155397 79.514470 70.242493 4.441802 2.814940 -0.047320 0.051040 0.042690 -0.091270 
3.181580 16.774060 -5.644790 5.167973 31.864003 -16.113124 -14.598924 12.636348 0.539426 17.132840 2.269567 -9.095102 17.190915 2.210658 39.426059 0.291525 6.721082 2.104694 0.077980 -0.112100 0.134660 18.992192 -13.124916 2.324769 -46.562645 -0.966396 -5.910525 2.571071 -16.295293 46.451207 -0.989352 -9.207708 0.948192 -0.013330 0.021570 0.058210 -6.969692 3.620557 -6.989422 35.869323 5.102642 4.545335 9.599000 -5.401367 20.911504 -4.266006 -0.009413 -17.511036 2.128070 -7.523778 65.655146 -4.333460 -7.097790 6.932970 8.884417 -20.341192 10.576721 2.291745 -2.378144 1.100025 -5.458130 -14.286859 1.252097 -3.605615 2.656297 0.193420 0.011100 -0.017440 -0.032210 1.586488 20.118483 8.430612 58.372457 39.060254 17.223747 84.954789 83.754595 55.253568 3.988398 0.731690 -0.079570 0.066110 0.073420 -0.091950 
3.090700 16.748350 -5.642290 5.793551 31.247151 -15.413918 -14.617394 12.612042 0.749928 15.827158 1.353538 -11.708526 16.910786 2.345468 43.713139 0.392365 7.314908 1.884231 0.059030 -0.138040 0.109270 18.998610 -12.901796 2.355281 -46.589798 -1.098962 -8.349795 2.090378 -16.646444 49.260705 -1.021723 -9.413060 0.876647 -0.023940 0.041700 0.049270 -6.824843 3.149598 -7.119237 36.146705 4.777572 6.639584 10.191618 -4.774027 20.721441 -4.578851 -0.148426 -17.186840 0.437329 -7.108847 67.859252 -3.008590 -8.013540 8.074500 8.064851 -20.880876 9.906906 0.694968 -6.282779 1.618305 -5.680215 -18.532283 2.019294 -3.528321 2.796020 0.196500 0.010470 -0.030910 -0.032000 3.058959 20.717266 8.755922 55.352184 34.790717 10.072674 69.079216 80.453941 42.270619 2.725986 -1.420900 -0.091180 0.071530 0.088200 -0.084850 
